<?xml version="1.0" encoding="utf-8"?>
<!-- Generator: Adobe Illustrator 15.0.2, SVG Export Plug-In . SVG Version: 6.00 Build 0)  -->
<!DOCTYPE svg PUBLIC "-//W3C//DTD SVG 1.1 Tiny//EN" "http://www.w3.org/Graphics/SVG/1.1/DTD/svg11-tiny.dtd">
<svg version="1.1" baseProfile="tiny" id="Layer_1" xmlns="http://www.w3.org/2000/svg" xmlns:xlink="http://www.w3.org/1999/xlink"
	 x="0px" y="0px" width="1049.255px" height="169.302px" viewBox="0 0 1049.255 169.302" xml:space="preserve">
<g>
	<path fill="#3478C1" d="M981.714,32.241c-30.601,0-53.566,21.299-53.566,51.755c0,30.455,22.966,51.761,53.566,51.761
		c30.604,0,53.408-21.306,53.408-51.761C1035.123,53.54,1012.318,32.241,981.714,32.241 M1011.081,85.774
		c-0.428,6.992-3.229,13.311-7.683,18.155c-0.548,0.532-1.063,1.105-1.614,1.63c-5.27,4.902-12.285,7.967-20.052,7.967
		c-16.31,0-29.532-13.22-29.532-29.53c0-16.31,13.223-29.529,29.532-29.529c15.694,0,28.412,12.284,29.349,27.748V85.774z"/>
	<path fill="#3478C1" d="M870.054,76.497v22.655h22.508v7.791c-3.603,3.004-11.104,6.011-18.457,6.011
		c-16.354,0-27.906-12.602-27.906-28.958c0-16.502,11.552-28.954,27.906-28.954c9.754,0,17.406,6.148,21.147,12.755l21.614-11.252
		c-6.906-12.452-20.411-24.304-42.762-24.304c-29.854,0-54.162,19.951-54.162,51.755c0,31.806,24.308,51.761,54.162,51.761
		c16.912,0,30.438-6.151,40.734-15.93c0.21-0.199,0.4-0.416,0.607-0.62c1.692-1.835,2.758-4.237,2.921-6.89v-1.353V76.497H870.054z"
		/>
	<path fill="#3478C1" d="M794.606,33.889h-1.984c-5.565,0.498-9.939,5.027-10.17,10.663v0.888v43.511l-40.505-55.063h-26.556
		v100.066h25.804v-57.91l42.312,57.91h24.901V33.889H794.606z"/>
	<path fill="#3478C1" d="M667.87,33.889h-32.556l-37.653,100.066h29.248l4.955-14.399h39.463l2.596,7.551l0.026,0.09
		c1.617,3.816,5.315,6.504,9.658,6.759h1.321h20.604L667.87,33.889z M638.918,97.05l12.75-37.658L664.28,97.05H638.918z"/>
	<path fill="#3478C1" d="M546.565,33.889h-42.013v88.219v1.353c0.356,5.755,5.007,10.324,10.813,10.495h0.66h30.688
		c31.35,0,54.012-19.052,54.012-50.112C600.724,52.792,578.062,33.889,546.565,33.889 M546.565,111.45h-16.206V56.391h16.354
		c18.301,0,27.603,11.999,27.603,27.453C574.315,98.699,564.113,111.45,546.565,111.45"/>
	<path fill="#3478C1" d="M472.785,33.889h-1.327c-5.625,0.334-10.11,4.791-10.477,10.416v1.449v43.197l-40.501-55.063h-26.557
		v100.066h25.803v-57.91l42.313,57.91h24.902V33.889H472.785z"/>
	<path fill="#3478C1" d="M346.978,33.889H313.68l-37.657,100.066h29.99l4.955-14.399h39.459l2.596,7.551l0.03,0.09
		c1.616,3.816,5.312,6.504,9.657,6.759h1.319h20.603L346.978,33.889z M318.018,97.05l12.759-37.658l12.6,37.658H318.018z"/>
	<path fill="#3478C1" d="M286.007,55.669V33.351h-76.704v100.174l27.365,0.002V98.211l24.719-0.002h2.336
		c4.675-0.558,8.333-4.394,8.612-9.152v-1.166V75.675h-35.667V55.669H286.007z"/>
	<path fill="#FF7300" d="M146.258,47.518L133.523,0L0,35.778l12.738,47.539l0.006,0.021c7.984,1.631,14.774,7.61,17.026,16.019
		c2.253,8.408-0.637,16.981-6.736,22.385l0.006,0.022l12.738,47.539l133.525-35.777l-12.734-47.519
		c-8.024-1.605-14.855-7.599-17.116-16.039C137.19,61.526,140.111,52.922,146.258,47.518 M96.445,49.184L56.705,59.83l7.985,29.806
		l39.739-10.647l7.987,29.806l-39.739,10.647l7.987,29.805l-39.74,10.646l-9.665-36.064c5.802-7.123,8.224-16.834,5.665-26.39
		c-2.561-9.554-9.512-16.755-18.101-20.023l-9.845-36.74l79.48-21.297L96.445,49.184z"/>
	<path fill="#FFFFFF" d="M96.445,49.184L56.705,59.83l7.985,29.806l39.739-10.647l7.987,29.806l-39.739,10.647l7.987,29.805
		l-39.74,10.646l-9.665-36.064c5.802-7.123,8.224-16.834,5.665-26.39c-2.561-9.554-9.512-16.755-18.101-20.023l-9.845-36.74
		l79.48-21.297L96.445,49.184z"/>
	<path d="M1049.255,37.43c0,1.409-0.501,2.613-1.5,3.612s-2.207,1.499-3.618,1.499s-2.617-0.5-3.616-1.499
		c-1.001-0.999-1.5-2.203-1.5-3.612c0-1.412,0.499-2.615,1.5-3.611c0.999-0.999,2.205-1.498,3.616-1.498s2.619,0.499,3.618,1.498
		C1048.754,34.815,1049.255,36.018,1049.255,37.43 M1048.561,37.43c0-1.231-0.432-2.28-1.296-3.147
		c-0.863-0.865-1.906-1.298-3.128-1.298c-1.22,0-2.263,0.433-3.126,1.298c-0.864,0.867-1.296,1.916-1.296,3.147
		c0,1.228,0.432,2.277,1.296,3.144c0.863,0.869,1.906,1.303,3.126,1.303c1.222,0,2.265-0.434,3.128-1.303
		C1048.129,39.708,1048.561,38.658,1048.561,37.43 M1047.078,40.033h-1.336l-1.667-2.082h-0.732v2.082h-0.979v-5.41h1.646
		c0.371,0,0.661,0.015,0.877,0.043c0.214,0.028,0.432,0.104,0.651,0.231c0.238,0.134,0.407,0.297,0.513,0.486
		c0.106,0.191,0.16,0.434,0.16,0.73c0,0.397-0.107,0.721-0.325,0.975c-0.219,0.252-0.501,0.451-0.85,0.594L1047.078,40.033z
		 M1045.14,36.174c0-0.145-0.024-0.271-0.071-0.377c-0.048-0.106-0.131-0.197-0.248-0.271c-0.097-0.065-0.208-0.108-0.33-0.127
		c-0.122-0.026-0.28-0.034-0.472-0.034h-0.677v1.83h0.577c0.188,0,0.364-0.018,0.529-0.058c0.167-0.035,0.301-0.102,0.4-0.192
		c0.103-0.089,0.178-0.195,0.223-0.313S1045.14,36.361,1045.14,36.174"/>
</g>
</svg>
